<svg xmlns="http://www.w3.org/2000/svg" viewBox="0 0 1200 900">
  <defs>
    <style>
      .title { font: bold 24px Inter, sans-serif; fill: #1e293b; }
      .subtitle { font: 12px Inter, sans-serif; fill: #64748b; }
      .section-title { font: bold 14px Inter, sans-serif; fill: #fff; }
      .screen-title { font: bold 11px Inter, sans-serif; fill: #1e293b; }
      .screen-desc { font: 9px Inter, sans-serif; fill: #64748b; }
      .box-tenant { fill: #f0fdf4; stroke: #22c55e; stroke-width: 2; rx: 8; }
      .box-master { fill: #ecfeff; stroke: #06b6d4; stroke-width: 2; rx: 8; }
      .box-auth { fill: #fef3c7; stroke: #f59e0b; stroke-width: 2; rx: 8; }
      .header-tenant { fill: #22c55e; }
      .header-master { fill: #06b6d4; }
      .header-auth { fill: #f59e0b; }
      .connector { stroke: #94a3b8; stroke-width: 1.5; fill: none; stroke-dasharray: 4,2; }
      .arrow { fill: #94a3b8; }
    </style>
  </defs>
  
  <!-- Title -->
  <text x="600" y="35" text-anchor="middle" class="title">OS Laboris — Mapa de Telas</text>
  <text x="600" y="55" text-anchor="middle" class="subtitle">Atualizado em 19/08/2026 • Sistema SaaS Multi-tenant</text>
  
  <!-- LOGIN (Auth) -->
  <g transform="translate(20, 80)">
    <rect x="0" y="0" width="160" height="80" class="box-auth"/>
    <rect x="0" y="0" width="160" height="24" class="header-auth" rx="8" ry="8"/>
    <rect x="0" y="12" width="160" height="12" class="header-auth"/>
    <text x="80" y="17" text-anchor="middle" class="section-title">🔐 Autenticação</text>
    <text x="80" y="45" text-anchor="middle" class="screen-title">Login</text>
    <text x="80" y="60" text-anchor="middle" class="screen-desc">Email + Senha</text>
    <text x="80" y="72" text-anchor="middle" class="screen-desc">JWT Multi-tenant</text>
  </g>
  
  <!-- Arrow from Login to Tenant/Master -->
  <path d="M 180 120 L 220 120" class="connector"/>
  <polygon points="220,116 228,120 220,124" class="arrow"/>
  
  <!-- TENANT AREA -->
  <g transform="translate(240, 80)">
    <!-- Dashboard -->
    <rect x="0" y="0" width="180" height="110" class="box-tenant"/>
    <rect x="0" y="0" width="180" height="24" class="header-tenant" rx="8" ry="8"/>
    <rect x="0" y="12" width="180" height="12" class="header-tenant"/>
    <text x="90" y="17" text-anchor="middle" class="section-title">📊 Dashboard</text>
    <text x="90" y="42" text-anchor="middle" class="screen-title">Visão Geral</text>
    <text x="90" y="56" text-anchor="middle" class="screen-desc">Cards por status (clicáveis)</text>
    <text x="90" y="68" text-anchor="middle" class="screen-desc">Ranking de técnicos 🥇🥈🥉</text>
    <text x="90" y="80" text-anchor="middle" class="screen-desc">Alertas: OS antigas, abandonadas</text>
    <text x="90" y="92" text-anchor="middle" class="screen-desc">Últimas OS criadas</text>
  </g>
  
  <!-- Ordens de Serviço -->
  <g transform="translate(440, 80)">
    <rect x="0" y="0" width="200" height="130" class="box-tenant"/>
    <rect x="0" y="0" width="200" height="24" class="header-tenant" rx="8" ry="8"/>
    <rect x="0" y="12" width="200" height="12" class="header-tenant"/>
    <text x="100" y="17" text-anchor="middle" class="section-title">📋 Ordens de Serviço</text>
    <text x="100" y="42" text-anchor="middle" class="screen-title">Lista de OS</text>
    <text x="100" y="54" text-anchor="middle" class="screen-desc">Filtros, busca, paginação</text>
    <text x="100" y="70" text-anchor="middle" class="screen-title">Nova/Editar OS</text>
    <text x="100" y="82" text-anchor="middle" class="screen-desc">Cliente, equipamento, itens, sinal</text>
    <text x="100" y="98" text-anchor="middle" class="screen-title">Detalhes da OS</text>
    <text x="100" y="110" text-anchor="middle" class="screen-desc">PDF, WhatsApp, Lote, Duplicar</text>
    <text x="100" y="122" text-anchor="middle" class="screen-desc">Campo Sinal com valor</text>
  </g>
  
  <!-- Clientes -->
  <g transform="translate(660, 80)">
    <rect x="0" y="0" width="160" height="100" class="box-tenant"/>
    <rect x="0" y="0" width="160" height="24" class="header-tenant" rx="8" ry="8"/>
    <rect x="0" y="12" width="160" height="12" class="header-tenant"/>
    <text x="80" y="17" text-anchor="middle" class="section-title">👥 Clientes</text>
    <text x="80" y="42" text-anchor="middle" class="screen-title">Lista de Clientes</text>
    <text x="80" y="54" text-anchor="middle" class="screen-desc">Busca por nome/doc/tel</text>
    <text x="80" y="70" text-anchor="middle" class="screen-title">Novo/Editar Cliente</text>
    <text x="80" y="82" text-anchor="middle" class="screen-desc">CPF/CNPJ validado</text>
    <text x="80" y="94" text-anchor="middle" class="screen-desc">Equipamentos vinculados</text>
  </g>
  
  <!-- Equipamentos -->
  <g transform="translate(840, 80)">
    <rect x="0" y="0" width="160" height="100" class="box-tenant"/>
    <rect x="0" y="0" width="160" height="24" class="header-tenant" rx="8" ry="8"/>
    <rect x="0" y="12" width="160" height="12" class="header-tenant"/>
    <text x="80" y="17" text-anchor="middle" class="section-title">🔧 Equipamentos</text>
    <text x="80" y="42" text-anchor="middle" class="screen-title">Lista de Equipamentos</text>
    <text x="80" y="54" text-anchor="middle" class="screen-desc">Tipo, marca, modelo, série</text>
    <text x="80" y="70" text-anchor="middle" class="screen-title">Novo/Editar Equipamento</text>
    <text x="80" y="82" text-anchor="middle" class="screen-desc">Vinculado a cliente</text>
    <text x="80" y="94" text-anchor="middle" class="screen-desc">Histórico de OS</text>
  </g>
  
  <!-- Técnicos -->
  <g transform="translate(1020, 80)">
    <rect x="0" y="0" width="160" height="100" class="box-tenant"/>
    <rect x="0" y="0" width="160" height="24" class="header-tenant" rx="8" ry="8"/>
    <rect x="0" y="12" width="160" height="12" class="header-tenant"/>
    <text x="80" y="17" text-anchor="middle" class="section-title">👨‍🔧 Técnicos</text>
    <text x="80" y="42" text-anchor="middle" class="screen-title">Lista de Técnicos</text>
    <text x="80" y="54" text-anchor="middle" class="screen-desc">Filtro ativo/inativo</text>
    <text x="80" y="70" text-anchor="middle" class="screen-title">Novo/Editar Técnico</text>
    <text x="80" y="82" text-anchor="middle" class="screen-desc">Nome, telefone, especialidade</text>
    <text x="80" y="94" text-anchor="middle" class="screen-desc">Toggle ativo/inativo</text>
  </g>
  
  <!-- Financeiro -->
  <g transform="translate(240, 230)">
    <rect x="0" y="0" width="200" height="120" class="box-tenant"/>
    <rect x="0" y="0" width="200" height="24" class="header-tenant" rx="8" ry="8"/>
    <rect x="0" y="12" width="200" height="12" class="header-tenant"/>
    <text x="100" y="17" text-anchor="middle" class="section-title">💰 Financeiro</text>
    <text x="100" y="42" text-anchor="middle" class="screen-title">Resumo Financeiro</text>
    <text x="100" y="56" text-anchor="middle" class="screen-desc">💵 Saldo Real (em caixa)</text>
    <text x="100" y="68" text-anchor="middle" class="screen-desc">📥 A Receber (OS pendentes)</text>
    <text x="100" y="80" text-anchor="middle" class="screen-desc">📤 A Pagar (despesas)</text>
    <text x="100" y="92" text-anchor="middle" class="screen-desc">📊 Saldo Previsto</text>
    <text x="100" y="108" text-anchor="middle" class="screen-title">Lançamentos</text>
    <text x="100" y="120" text-anchor="middle" class="screen-desc">Pendente → Pago (baixa manual)</text>
  </g>
  
  <!-- Faturamento -->
  <g transform="translate(460, 230)">
    <rect x="0" y="0" width="180" height="90" class="box-tenant"/>
    <rect x="0" y="0" width="180" height="24" class="header-tenant" rx="8" ry="8"/>
    <rect x="0" y="12" width="180" height="12" class="header-tenant"/>
    <text x="90" y="17" text-anchor="middle" class="section-title">📈 Faturamento</text>
    <text x="90" y="42" text-anchor="middle" class="screen-title">Relatório Mensal</text>
    <text x="90" y="56" text-anchor="middle" class="screen-desc">Receitas por período</text>
    <text x="90" y="68" text-anchor="middle" class="screen-desc">Por técnico, por status</text>
    <text x="90" y="80" text-anchor="middle" class="screen-desc">Exportar dados</text>
  </g>
  
  <!-- Configurações -->
  <g transform="translate(660, 230)">
    <rect x="0" y="0" width="180" height="110" class="box-tenant"/>
    <rect x="0" y="0" width="180" height="24" class="header-tenant" rx="8" ry="8"/>
    <rect x="0" y="12" width="180" height="12" class="header-tenant"/>
    <text x="90" y="17" text-anchor="middle" class="section-title">⚙️ Configurações</text>
    <text x="90" y="42" text-anchor="middle" class="screen-title">Dados da Empresa</text>
    <text x="90" y="56" text-anchor="middle" class="screen-desc">Nome, CNPJ, endereço</text>
    <text x="90" y="68" text-anchor="middle" class="screen-desc">Logo (até 200KB)</text>
    <text x="90" y="84" text-anchor="middle" class="screen-title">Personalização PDF</text>
    <text x="90" y="96" text-anchor="middle" class="screen-desc">Cabeçalho, rodapé</text>
    <text x="90" y="108" text-anchor="middle" class="screen-desc">PIN do administrador</text>
  </g>
  
  <!-- Lote de OS -->
  <g transform="translate(860, 230)">
    <rect x="0" y="0" width="160" height="90" class="box-tenant"/>
    <rect x="0" y="0" width="160" height="24" class="header-tenant" rx="8" ry="8"/>
    <rect x="0" y="12" width="160" height="12" class="header-tenant"/>
    <text x="80" y="17" text-anchor="middle" class="section-title">📦 Lote de OS</text>
    <text x="80" y="42" text-anchor="middle" class="screen-title">Adicionar ao Lote</text>
    <text x="80" y="54" text-anchor="middle" class="screen-desc">Mesmo cliente, múltiplos equip.</text>
    <text x="80" y="70" text-anchor="middle" class="screen-title">PDF do Lote</text>
    <text x="80" y="82" text-anchor="middle" class="screen-desc">Individual ou Resumo</text>
  </g>

  <!-- Separator -->
  <line x1="20" y1="380" x2="1180" y2="380" stroke="#cbd5e1" stroke-width="2" stroke-dasharray="8,4"/>
  <text x="600" y="400" text-anchor="middle" class="subtitle">👑 Área Master (Super Admin) — Paleta Cyan</text>
  
  <!-- MASTER AREA -->
  <!-- Master Dashboard -->
  <g transform="translate(100, 420)">
    <rect x="0" y="0" width="220" height="140" class="box-master"/>
    <rect x="0" y="0" width="220" height="24" class="header-master" rx="8" ry="8"/>
    <rect x="0" y="12" width="220" height="12" class="header-master"/>
    <text x="110" y="17" text-anchor="middle" class="section-title">👑 Master Dashboard</text>
    <text x="110" y="42" text-anchor="middle" class="screen-title">Status do Sistema</text>
    <text x="110" y="56" text-anchor="middle" class="screen-desc">🗄️ Banco de dados (latência)</text>
    <text x="110" y="68" text-anchor="middle" class="screen-desc">💾 Backups (GitHub Actions)</text>
    <text x="110" y="80" text-anchor="middle" class="screen-desc">🚀 Deploy (Render)</text>
    <text x="110" y="92" text-anchor="middle" class="screen-desc">📡 Uptime (UptimeRobot)</text>
    <text x="110" y="108" text-anchor="middle" class="screen-title">Métricas Globais</text>
    <text x="110" y="120" text-anchor="middle" class="screen-desc">Total tenants, OS, clientes</text>
    <text x="110" y="132" text-anchor="middle" class="screen-desc">Alertas de falha</text>
  </g>
  
  <!-- Gestão de Tenants -->
  <g transform="translate(340, 420)">
    <rect x="0" y="0" width="200" height="140" class="box-master"/>
    <rect x="0" y="0" width="200" height="24" class="header-master" rx="8" ry="8"/>
    <rect x="0" y="12" width="200" height="12" class="header-master"/>
    <text x="100" y="17" text-anchor="middle" class="section-title">🏢 Gestão de Tenants</text>
    <text x="100" y="42" text-anchor="middle" class="screen-title">Lista de Tenants</text>
    <text x="100" y="54" text-anchor="middle" class="screen-desc">Todas as empresas do SaaS</text>
    <text x="100" y="70" text-anchor="middle" class="screen-title">Criar Tenant</text>
    <text x="100" y="82" text-anchor="middle" class="screen-desc">Nome, slug, admin, módulos</text>
    <text x="100" y="98" text-anchor="middle" class="screen-title">Editar Tenant</text>
    <text x="100" y="110" text-anchor="middle" class="screen-desc">Ativar/desativar</text>
    <text x="100" y="122" text-anchor="middle" class="screen-desc">Reset de senha</text>
    <text x="100" y="134" text-anchor="middle" class="screen-desc">Módulos habilitados</text>
  </g>
  
  <!-- Impersonate -->
  <g transform="translate(560, 420)">
    <rect x="0" y="0" width="180" height="110" class="box-master"/>
    <rect x="0" y="0" width="180" height="24" class="header-master" rx="8" ry="8"/>
    <rect x="0" y="12" width="180" height="12" class="header-master"/>
    <text x="90" y="17" text-anchor="middle" class="section-title">🎭 Impersonate</text>
    <text x="90" y="42" text-anchor="middle" class="screen-title">Acessar como Tenant</text>
    <text x="90" y="56" text-anchor="middle" class="screen-desc">Ver sistema como cliente vê</text>
    <text x="90" y="72" text-anchor="middle" class="screen-title">Banner Visual</text>
    <text x="90" y="84" text-anchor="middle" class="screen-desc">Barra laranja indica modo</text>
    <text x="90" y="100" text-anchor="middle" class="screen-title">Log de Sessões</text>
    <text x="90" y="112" text-anchor="middle" class="screen-desc">Auditoria completa</text>
  </g>
  
  <!-- Audit Log -->
  <g transform="translate(760, 420)">
    <rect x="0" y="0" width="180" height="100" class="box-master"/>
    <rect x="0" y="0" width="180" height="24" class="header-master" rx="8" ry="8"/>
    <rect x="0" y="12" width="180" height="12" class="header-master"/>
    <text x="90" y="17" text-anchor="middle" class="section-title">📜 Auditoria</text>
    <text x="90" y="42" text-anchor="middle" class="screen-title">Log de Auditoria</text>
    <text x="90" y="56" text-anchor="middle" class="screen-desc">Todas as ações do sistema</text>
    <text x="90" y="68" text-anchor="middle" class="screen-desc">Filtro por tenant, ação</text>
    <text x="90" y="84" text-anchor="middle" class="screen-title">Histórico Impersonate</text>
    <text x="90" y="96" text-anchor="middle" class="screen-desc">Quem acessou, quando</text>
  </g>
  
  <!-- Uptime -->
  <g transform="translate(960, 420)">
    <rect x="0" y="0" width="160" height="100" class="box-master"/>
    <rect x="0" y="0" width="160" height="24" class="header-master" rx="8" ry="8"/>
    <rect x="0" y="12" width="160" height="12" class="header-master"/>
    <text x="80" y="17" text-anchor="middle" class="section-title">📡 Monitoramento</text>
    <text x="80" y="42" text-anchor="middle" class="screen-title">UptimeRobot</text>
    <text x="80" y="56" text-anchor="middle" class="screen-desc">Status online/offline</text>
    <text x="80" y="68" text-anchor="middle" class="screen-desc">Uptime % (7 dias)</text>
    <text x="80" y="84" text-anchor="middle" class="screen-title">Alertas</text>
    <text x="80" y="96" text-anchor="middle" class="screen-desc">Backup atrasado, DB offline</text>
  </g>

  <!-- PWA Mobile Section -->
  <g transform="translate(100, 590)">
    <rect x="0" y="0" width="1020" height="80" fill="#fef9c3" stroke="#eab308" stroke-width="2" rx="8"/>
    <rect x="0" y="0" width="1020" height="24" fill="#eab308" rx="8" ry="8"/>
    <rect x="0" y="12" width="1020" height="12" fill="#eab308"/>
    <text x="510" y="17" text-anchor="middle" class="section-title">📱 PWA Mobile — Bottom Tab Bar + Drawer "Mais"</text>
    
    <text x="100" y="45" text-anchor="middle" class="screen-title">🏠 Home</text>
    <text x="100" y="60" text-anchor="middle" class="screen-desc">Dashboard</text>
    
    <text x="250" y="45" text-anchor="middle" class="screen-title">📋 OS</text>
    <text x="250" y="60" text-anchor="middle" class="screen-desc">Ordens de Serviço</text>
    
    <text x="400" y="45" text-anchor="middle" class="screen-title">👥 Clientes</text>
    <text x="400" y="60" text-anchor="middle" class="screen-desc">Lista e cadastro</text>
    
    <text x="550" y="45" text-anchor="middle" class="screen-title">💰 Financeiro</text>
    <text x="550" y="60" text-anchor="middle" class="screen-desc">Resumo e lançamentos</text>
    
    <text x="700" y="45" text-anchor="middle" class="screen-title">⋯ Mais</text>
    <text x="700" y="60" text-anchor="middle" class="screen-desc">Drawer com:</text>
    
    <text x="850" y="45" text-anchor="middle" class="screen-desc">📈 Faturamento</text>
    <text x="850" y="57" text-anchor="middle" class="screen-desc">👨‍🔧 Técnicos</text>
    <text x="850" y="69" text-anchor="middle" class="screen-desc">🔧 Equipamentos</text>
    
    <text x="1000" y="45" text-anchor="middle" class="screen-desc">⚙️ Config</text>
    <text x="1000" y="57" text-anchor="middle" class="screen-desc">🔍 Busca</text>
    <text x="1000" y="69" text-anchor="middle" class="screen-desc">🚪 Sair</text>
  </g>

  <!-- Legend -->
  <g transform="translate(100, 710)">
    <text x="0" y="0" class="screen-title">Legenda:</text>
    <rect x="80" y="-12" width="20" height="14" class="box-tenant"/>
    <text x="105" y="0" class="screen-desc">Área Tenant (Verde)</text>
    <rect x="220" y="-12" width="20" height="14" class="box-master"/>
    <text x="245" y="0" class="screen-desc">Área Master (Cyan)</text>
    <rect x="360" y="-12" width="20" height="14" class="box-auth"/>
    <text x="385" y="0" class="screen-desc">Autenticação (Amber)</text>
    <rect x="520" y="-12" width="20" height="14" fill="#fef9c3" stroke="#eab308" stroke-width="1"/>
    <text x="545" y="0" class="screen-desc">Mobile PWA (Yellow)</text>
  </g>

  <!-- Footer -->
  <text x="600" y="760" text-anchor="middle" class="subtitle">OS Laboris v1.0 • Sistema SaaS Multi-tenant de Gestão de Ordens de Serviço</text>
  <text x="600" y="778" text-anchor="middle" class="subtitle">Stack: React + TypeScript + Node.js + PostgreSQL (Neon) • Deploy: Render</text>
</svg>
